<?xml version="1.0" encoding="UTF-8" standalone="no"?>
<svg
   viewBox="0 0 409.8 410.9"
   xml:space="preserve"
   version="1.1"
   id="svg23"
   sodipodi:docname="logo_simple_dark.svg"
   inkscape:version="1.3.2 (091e20e, 2023-11-25)"
   xmlns:inkscape="http://www.inkscape.org/namespaces/inkscape"
   xmlns:sodipodi="http://sodipodi.sourceforge.net/DTD/sodipodi-0.dtd"
   xmlns="http://www.w3.org/2000/svg"
   xmlns:svg="http://www.w3.org/2000/svg"><defs
   id="defs23" /><sodipodi:namedview
   id="namedview23"
   pagecolor="#ffffff"
   bordercolor="#000000"
   borderopacity="0.25"
   inkscape:showpageshadow="2"
   inkscape:pageopacity="0.0"
   inkscape:pagecheckerboard="0"
   inkscape:deskcolor="#d1d1d1"
   inkscape:zoom="1.3150817"
   inkscape:cx="212.53432"
   inkscape:cy="184.01898"
   inkscape:window-width="1312"
   inkscape:window-height="449"
   inkscape:window-x="0"
   inkscape:window-y="25"
   inkscape:window-maximized="0"
   inkscape:current-layer="g23" />
<g
   transform="translate(342.2 585.5)"
   id="g23">
<circle
   cx="-140.1"
   cy="-379.5"
   r="74.3"
   fill="#292f42"
   stroke="#fff"
   stroke-width="4.4"
   id="circle1"
   style="fill:none" />
<circle
   cx="-139.6"
   cy="-209.4"
   r="32.7"
   fill="#fff"
   stroke="#fff"
   stroke-width="4.4"
   id="circle2" />
<circle
   transform="rotate(-66)"
   cx="299.2"
   cy="-111.8"
   r="32.7"
   fill="#fff"
   stroke="#fff"
   stroke-width="4.4"
   id="circle3" />
<circle
   transform="rotate(251.6)"
   cx="427.1"
   cy="159.5"
   r="32.7"
   fill="#fff"
   stroke="#fff"
   stroke-width="4.4"
   id="circle4" />
<circle
   transform="rotate(178.8)"
   cx="131.6"
   cy="552.8"
   r="32.7"
   fill="#fbfeff"
   stroke="#fff"
   stroke-width="4.4"
   id="circle5" />
<circle
   transform="rotate(112.7)"
   cx="-287.7"
   cy="445.1"
   r="32.7"
   fill="#fff"
   stroke="#fff"
   stroke-width="4.4"
   id="circle6" />
<circle
   transform="rotate(70.5)"
   cx="-381.8"
   cy="176.9"
   r="32.7"
   fill="#fff"
   stroke="#fff"
   stroke-width="4.4"
   id="circle7" />
<path
   d="m-11.5-434.2-6.3-12.6s-5.7 3.2-6.2 5.3c-.5 2.2 1.8 7 4 8.7s8.5-1.4 8.5-1.4zm-56.7 28.7-6.3-12.6s6-2.6 8-1.8c2 1 4.5 5.8 4.5 8.5s-6.2 6-6.2 6z"
   fill="#b1babc"
   stroke="#fff"
   stroke-width="4"
   id="path7" />
<path
   d="m-22.6-437-41.7 21.5"
   fill="#b1babc"
   stroke="#fff"
   stroke-width="4.4"
   id="path8" />
<ellipse
   cx="-97"
   cy="-390.5"
   rx="15.6"
   ry="15.3"
   fill="#fff"
   id="ellipse8" />
<path
   d="m-14.1-324 3.6-13.6s-6.3-1.4-8.1-.2c-1.9 1.3-3.3 6.5-2.8 9.2s7.3 4.5 7.3 4.5zm-61.5-16.2 3.7-13.5s6.2 2 7 3.9c1 2-.3 7.3-2.1 9.3s-8.6.3-8.6.3z"
   fill="#b1babc"
   stroke="#fff"
   stroke-width="4"
   id="path9" />
<path
   d="M-20.5-333.6-66-345"
   fill="#b1babc"
   stroke="#fff"
   stroke-width="4.4"
   id="path10" />
<ellipse
   cx="-137.7"
   cy="-403.8"
   rx="18.9"
   ry="18.5"
   fill="#fff"
   id="ellipse10" />
<path
   d="m-130.5-305.3-14-.3s0 6.5 1.7 8c1.7 1.4 7 1.6 9.6.4 2.5-1.1 2.7-8.1 2.7-8.1zm-1 63.5-14-.3s.3-6.5 2-7.8c1.8-1.5 7.2-1.4 9.6-.1 2.5 1.3 2.4 8.2 2.4 8.2zm25.5 24.4-5.8-12.8s6-2.4 8-1.5c2 1 4.3 5.8 4.3 8.5-.1 2.8-6.4 5.8-6.4 5.8zm-67.6 1.5 5.9-12.7s-6-2.5-8-1.6c-2 1-4.4 5.8-4.3 8.6 0 2.7 6.3 5.7 6.3 5.7z"
   fill="#b1babc"
   stroke="#fff"
   stroke-width="4"
   id="path11" />
<path
   d="m-138.2-296.8-.4 47"
   fill="#b1babc"
   stroke="#fff"
   stroke-width="4.4"
   id="path12" />
<ellipse
   cx="-184.8"
   cy="-391"
   rx="15.6"
   ry="15.3"
   fill="#fff"
   id="ellipse12" />
<path
   d="M-169.3-346.7c.8-12.1 6.5-38 21-41a45 45 0 0 1 19.2 0c16 2.9 16.6 10.3 16.5 25-.2 6.7 0 26.4 0 26.4-30-3.6-36.9 9-56.7-10.4"
   fill="#fff"
   id="path13" />
<path
   d="M-210-352.7s8.4 18.7 10.4 20 9.7 9.2 10.8 9.9l25.7 13 26.2 4.1 26-5 24-17.2 17.2-26.5s-2.9-16.5-11.5-20.4c-4.4-2-18.3-6.2-19.8-6-1.6.2-81.9 18.8-81.9 18.8l-16-16.2s-12.6 7.2-11 25.5"
   fill="#fff"
   id="path14" />
<path
   d="M-208.6-353.4c.7-10 1.4-25.4 13.4-28 7.3-1.2 11.7-.8 15.9 0 13.1 2.5 12.4 9.4 17.6 20.4a121 121 0 0 1 4.3 23.3c-24.8-2.9-34.8.4-51.2-15.7"
   fill="#fff"
   id="path15" />
<path
   d="m25.4-352.8-14 .2s.1-6.5 1.7-7.9c1.8-1.5 7.1-1.6 9.6-.5s2.7 8.2 2.7 8.2zm-26 62.6-9.3-10.6s-4.7 4.5-4.6 6.6c0 2.3 3.5 6.4 6 7.4s11.8-5.3 11.8-5.3zM-1.3-485l-10.2 9.6s-4.2-4.9-4-7c.3-2.3 4.1-6 6.8-6.8 2.6-.8 7.4 4.2 7.4 4.2zm22.8 63.8-14-1.6s-.4 6.5 1 8c1.7 1.7 7 2.4 9.6 1.5 2.6-1 5.1-9.7 5.1-9.7zm-287.9 98.6 6.6 12.4s5.6-3.2 6-5.3c.5-2.3-2-7-4.1-8.7-2.3-1.6-8.5 1.6-8.5 1.6zm56.1-29 6.5 12.4s-5.9 2.8-7.8 2c-2.2-.9-4.7-5.6-4.8-8.4 0-2.7 6.1-6 6.1-6z"
   fill="#b1babc"
   stroke="#fff"
   stroke-width="4"
   id="path16" />
<path
   d="m-255.2-320 41.2-22.4"
   fill="#b1babc"
   stroke="#fff"
   stroke-width="4.4"
   id="path17" />
<path
   d="m-266-432.7-3.4 13.6s6.4 1.3 8.1 0c1.9-1.3 3.2-6.6 2.6-9.2-.6-2.7-7.3-4.5-7.3-4.5zm58.7 16.1-4.5 13.3s-6-2.3-6.9-4.3c-.8-2.2.9-7.3 2.8-9.2 2-2 8.6.2 8.6.2z"
   fill="#b1babc"
   stroke="#fff"
   stroke-width="4"
   id="path18" />
<path
   d="m-259.5-423.5 41.5 10"
   fill="#b1babc"
   stroke="#fff"
   stroke-width="4.4"
   id="path19" />
<path
   d="M-150-453.9h14s-.3-6.5-2-7.9-7-1.5-9.5-.3-2.6 8.2-2.6 8.2zm-.3-63.5h14s-.3 6.5-2 7.9-7 1.5-9.5.3c-2.5-1.3-2.5-8.3-2.5-8.3zm-26.2-23.9 6.2 12.7s-6 2.6-7.9 1.7c-2.1-1-4.5-5.7-4.5-8.5s6.2-5.9 6.2-5.9zm67.7-2.9-5.6 12.8s6 2.4 8 1.5c2-1 4.2-6 4.1-8.7s-7.6-9.4-7.6-9.4z"
   fill="#b1babc"
   stroke="#fff"
   stroke-width="4"
   id="path20" />
<path
   d="m-142.5-462.5-.7-47"
   fill="#b1babc"
   stroke="#fff"
   stroke-width="4.4"
   id="path21" />
<path
   d="m-305-403.2 14-.5s0 6.5-1.5 8c-1.7 1.5-7.1 1.7-9.6.6s-2.9-8-2.9-8zm24.8-63.1 9.4 10.4s4.6-4.6 4.6-6.7c-.1-2.3-3.7-6.3-6.3-7.3s-7.7 3.6-7.7 3.6zm4.6 194.7 10-9.8s4.4 4.8 4.2 7-4 6-6.6 7c-2.6.8-7.6-4.2-7.6-4.2zm-24.1-63.3 14 1.3s.3-6.5-1.2-8c-1.6-1.6-7-2.2-9.5-1.2-2.6 1-3.3 8-3.3 8z"
   fill="#b1babc"
   stroke="#fff"
   stroke-width="4"
   id="path22" />
<path
   d="m-298.3-393.8 6.2 50m22.6-124 87.8-62.5m77.3-4 90.6 47.2m26.6 74.8 5.4 50.5m-119.4 132.6 89.8-60.7M-180-228.3a5170 5170 0 0 0-84.7-42.5"
   fill="none"
   stroke="#fff"
   stroke-width="4.4"
   id="path23" />
</g>
</svg>
